<svg xmlns="http://www.w3.org/2000/svg" viewBox="0 0 64 64" role="img" aria-labelledby="title">
  <title>Baguette Basket</title>
  <rect width="64" height="64" rx="18" fill="#f4e5d1" />
  <path
    d="M18 24c0-6.627 5.373-12 12-12h4c6.627 0 12 5.373 12 12v20c0 4.418-3.582 8-8 8H26c-4.418 0-8-3.582-8-8V24Z"
    fill="#d8b07b"
  />
  <path
    d="M26 14h12c4.418 0 8 3.582 8 8v6H18v-4c0-5.523 4.477-10 10-10Z"
    fill="#8a5b2b"
  />
  <path
    d="M25 27h14M25 35h14M25 43h10"
    stroke="#fff8ef"
    stroke-linecap="round"
    stroke-width="3"
  />
</svg>
